# xmcd
#
# Track frame offsets:
#	150
#	15546
#	28126
#	43649
#	61598
#	78064
#
# Disc length: 1275 seconds
#
# Revision: 1
# Processed by: cddbd v1.5.2PL0 Copyright (c) Steve Scherf et al.
# Submitted via: audiograbber 1.83.01
#
DISCID=3804f906
DTITLE=Paul Brandt - The Journey YYC Vol. 01
DYEAR=2018
DGENRE=Country
TTITLE0=The Journey
TTITLE1=All About Her
TTITLE2=Better Country
TTITLE3=Thank You,  Thank You
TTITLE4=YYC BNA
TTITLE5=Slow Down
EXTD=
EXTT0=
EXTT1=
EXTT2=
EXTT3=
EXTT4=
EXTT5=
PLAYORDER=
